<svg xmlns="http://www.w3.org/2000/svg" xmlns:sketch="http://www.bohemiancoding.com/sketch/ns" xmlns:xlink="http://www.w3.org/1999/xlink" height="20" version="1.1" width="20"><rect id="backgroundrect" width="100%" height="100%" x="0" y="0" fill="none" stroke="none"/><title/><desc/><defs/><g class="currentLayer" style=""><title>Layer 1</title><g fill="#0bd50b" fill-rule="evenodd" id="Page-1" stroke="none" stroke-width="1" class="selected" fill-opacity="1"><g fill="#0bd50b" id="Core" fill-opacity="1"><g id="check-circle-outline-blank" fill="#0bd50b" fill-opacity="1"><path d="M10,0 C4.5,0 0,4.5 0,10 C0,15.5 4.5,20 10,20 C15.5,20 20,15.5 20,10 C20,4.5 15.5,0 10,0 L10,0 zM10,18 C5.599999999999994,18 2,14.400000000000006 2,10 C2,5.599999999999994 5.599999999999994,2 10,2 C14.400000000000006,2 18,5.599999999999994 18,10 C18,14.400000000000006 14.400000000000006,18 10,18 L10,18 z" id="Shape" fill="#0bd50b" fill-opacity="1"/></g></g></g></g></svg>